<svg id="SvgjsSvg1000" xmlns="http://www.w3.org/2000/svg" version="1.1" xmlns:xlink="http://www.w3.org/1999/xlink" xmlns:svgjs="http://svgjs.com/svgjs" width="1897" height="9" viewBox="0 0 1897 9"><title>Path</title><desc>Created with Avocode.</desc><defs id="SvgjsDefs1001"></defs><path id="SvgjsPath1007" d="M735 71H733V79H730V72.9999H729V79H725V72.9999H724V79H720V72.9999H719V79H715V72.9999H714V79H711V71H709V79H705V72.9999H704V79H700V72.9999H699V79H695V72.9999H694V79H690V72.9999H689V79H686V71H684V79H680V72.9999H679V79H675V72.9999H674V79H670V72.9999H669V79H665V72.9999H664V79H661V71H659V79H655V72.9999H654V79H650V72.9999H649V79H645V72.9999H644V79H640V72.9999H639V79H636V71H634V79H630V72.9999H629V79H625V72.9999H624V79H620V72.9999H619V79H615V72.9999H614V79H611V71H609V79H605V72.9999H604V79H600V72.9999H599V79H595V72.9999H594V79H590V72.9999H589V79H586V71H584V79H580V72.9999H579V79H575V72.9999H574V79H570V72.9999H569V79H565V72.9999H564V79H561V71H559V79H555V72.9999H554V79H550V72.9999H549V79H545V72.9999H544V79H540V72.9999H539V79H536V71H534V79H530V72.9999H529V79H525V72.9999H524V79H520V72.9999H519V79H515V72.9999H514V79H511V71H509V79H505V72.9999H504V79H500V72.9999H499V79H495V72.9999H494V79H490V72.9999H489V79H486V71H484V79H480V72.9999H479V79H475V72.9999H474V79H470V72.9999H469V79H465V72.9999H464V79H461V71H459V79H455V72.9999H454V79H450V72.9999H449V79H445V72.9999H444V79H440V72.9999H439V79H436V71H434V79H430V72.9999H429V79H425V72.9999H424V79H420V72.9999H419V79H415V72.9999H414V79H411V71H409V79H405V72.9999H404V79H400V72.9999H399V79H395V72.9999H394V79H390V72.9999H389V79H386V71H384V79H380V72.9999H379V79H375V72.9999H374V79H370V72.9999H369V79H365V72.9999H364V79H361V71H359V79H355V72.9999H354V79H350V72.9999H349V79H345V72.9999H344V79H340V72.9999H339V79H336V71H334V79H330V72.9999H329V79H325V72.9999H324V79H320V72.9999H319V79H315V72.9999H314V79H311V71H309V79H305V72.9999H304V79H300V72.9999H299V79H295V72.9999H294V79H290V72.9999H289V79H286V71H284V79H280V72.9999H279V79H275V72.9999H274V79H270V72.9999H269V79H265V73.9999H264V79H261V71H259V79H256V72.9999H255V79H251V72.9999H250V79H246V72.9999H245V79H241V72.9999H240V79H237V71H235V79H231V72.9999H230V79H226V72.9999H225V79H221V72.9999H220V79H216V72.9999H215V79H212V71H210V79H206V72.9999H205V79H201V72.9999H200V79H196V72.9999H195V79H191V72.9999H190V79H187V71H185V79H181V72.9999H180V79H176V72.9999H175V79H171V72.9999H170V79H166V72.9999H165V79H162V71H160V79H156V72.9999H155V79H151V72.9999H150V79H146V72.9999H145V79H141V72.9999H140V79H137V71H135V79H131V72.9999H130V79H126V72.9999H125V79H121V72.9999H120V79H116V72.9999H115V79H112V71H110V79H106V72.9999H105V79H101V72.9999H100V79H95.9999V72.9999H95V79H90.9999V72.9999H89.9999V79H87V71H84.9999V79H80.9999V72.9999H79.9999V79H75.9999V72.9999H74.9999V79H71V72.9999H69.9999V79H66V72.9999H64.9999V79H62V71H59.9999V79H56V72.9999H54.9999V79H51V72.9999H50V79H46V72.9999H45V79H41V72.9999H40V79H36.9999V71H35V79H31V72.9999H30V79H26V72.9999H25V79H21V72.9999H20V79H15.9999V72.9999H15V79H11.9999V71H9.99999V79H5.99992V72.9999H5V79H0.99993V72.9999H0V79H-3.99998V72.9999H-5V79H-8.99997V72.9999H-9.999989999999999V79H-12.999999999999998V71H-14.999999999999998V79H-19V72.9999H-20V79H-24V72.9999H-25V79H-29V72.9999H-30V79H-33.9999V72.9999H-35V79H-37.9999V71H-40V79H-43.9999V72.9999H-45V79H-48.9999V72.9999H-50V79H-53.9999V72.9999H-54.9999V79H-58.9999V72.9999H-59.9999V79H-63V71H-64.9999V79H-68.9999V72.9999H-69.9999V79H-73.9999V72.9999H-74.9999V79H-79V72.9999H-79.9999V79H-84V72.9999H-84.9999V79H-88V71H-89.9999V79H-94V72.9999H-95V79H-99V72.9999H-100V79H-104V72.9999H-105V79H-109V72.9999H-110V79H-113V71H-115V79H-119V72.9999H-120V79H-124V72.9999H-125V79H-129V72.9999H-130V79H-134V72.9999H-135V79H-138V71H-140V79H-144V72.9999H-145V79H-149V72.9999H-150V79H-154V72.9999H-155V79H-159V72.9999H-160V79H-163V71H-165V79H-169V72.9999H-170V79H-174V72.9999H-175V79H-179V72.9999H-180V79H-184V72.9999H-185V79H-188V71H-190V79H-194V72.9999H-195V79H-199V72.9999H-200V79H-204V72.9999H-205V79H-209V73.9999H-210V79H-213V71H-215V80H1682V79H1678V72.9999H1677V79H1673V72.9999H1672V79H1668V72.9999H1667V79H1663V72.9999H1662V79H1659V71H1657V79H1653V72.9999H1652V79H1648V72.9999H1647V79H1643V72.9999H1642V79H1638V72.9999H1637V79H1634V71H1632V79H1628V72.9999H1627V79H1623V72.9999H1622V79H1618V72.9999H1617V79H1613V72.9999H1612V79H1609V71H1607V79H1603V72.9999H1602V79H1598V72.9999H1597V79H1593V72.9999H1592V79H1588V72.9999H1587V79H1584V71H1582V79H1578V72.9999H1577V79H1573V72.9999H1572V79H1568V72.9999H1567V79H1563V72.9999H1562V79H1559V71H1557V79H1553V72.9999H1552V79H1548V72.9999H1547V79H1543V72.9999H1542V79H1538V72.9999H1537V79H1534V71H1532V79H1528V72.9999H1527V79H1523V72.9999H1522V79H1518V72.9999H1517V79H1513V72.9999H1512V79H1509V71H1507V79H1503V72.9999H1502V79H1498V72.9999H1497V79H1493V72.9999H1492V79H1488V72.9999H1487V79H1484V71H1482V79H1478V72.9999H1477V79H1473V72.9999H1472V79H1468V72.9999H1467V79H1463V72.9999H1462V79H1459V71H1457V79H1453V72.9999H1452V79H1448V72.9999H1447V79H1443V72.9999H1442V79H1438V72.9999H1437V79H1434V71H1432V79H1428V72.9999H1427V79H1423V72.9999H1422V79H1418V72.9999H1417V79H1413V72.9999H1412V79H1409V71H1407V79H1403V72.9999H1402V79H1398V72.9999H1397V79H1393V72.9999H1392V79H1388V72.9999H1387V79H1384V71H1382V79H1378V72.9999H1377V79H1373V72.9999H1372V79H1368V72.9999H1367V79H1363V72.9999H1362V79H1359V71H1357V79H1353V72.9999H1352V79H1348V72.9999H1347V79H1343V72.9999H1342V79H1338V72.9999H1337V79H1334V71H1332V79H1328V72.9999H1327V79H1323V72.9999H1322V79H1318V72.9999H1317V79H1313V72.9999H1312V79H1309V71H1307V79H1303V72.9999H1302V79H1298V72.9999H1297V79H1293V72.9999H1292V79H1288V72.9999H1287V79H1284V71H1282V79H1278V72.9999H1277V79H1273V72.9999H1272V79H1268V72.9999H1267V79H1263V72.9999H1262V79H1259V71H1257V79H1253V72.9999H1252V79H1248V72.9999H1247V79H1243V72.9999H1242V79H1238V72.9999H1237V79H1234V71H1232V79H1228V72.9999H1227V79H1223V72.9999H1222V79H1218V72.9999H1217V79H1213V73.9999H1212V79H1209V71H1207V79H1204V72.9999H1203V79H1199V72.9999H1198V79H1194V72.9999H1193V79H1189V72.9999H1188V79H1185V71H1183V79H1179V72.9999H1178V79H1174V72.9999H1173V79H1169V72.9999H1168V79H1164V72.9999H1163V79H1160V71H1158V79H1154V72.9999H1153V79H1149V72.9999H1148V79H1144V72.9999H1143V79H1139V72.9999H1138V79H1135V71H1133V79H1129V72.9999H1128V79H1124V72.9999H1123V79H1119V72.9999H1118V79H1114V72.9999H1113V79H1110V71H1108V79H1104V72.9999H1103V79H1099V72.9999H1098V79H1094V72.9999H1093V79H1089V72.9999H1088V79H1085V71H1083V79H1079V72.9999H1078V79H1074V72.9999H1073V79H1069V72.9999H1068V79H1064V72.9999H1063V79H1060V71H1058V79H1054V72.9999H1053V79H1049V72.9999H1048V79H1044V72.9999H1043V79H1039V72.9999H1038V79H1035V71H1033V79H1029V72.9999H1028V79H1024V72.9999H1023V79H1019V72.9999H1018V79H1014V72.9999H1013V79H1010V71H1008V79H1004V72.9999H1003V79H999V72.9999H998V79H994V72.9999H993V79H989V72.9999H988V79H985V71H983V79H979V72.9999H978V79H974V72.9999H973V79H969V72.9999H968V79H964V72.9999H963V79H960V71H958V79H954V72.9999H953V79H949V72.9999H948V79H944V72.9999H943V79H939V72.9999H938V79H935V71H933V79H929V72.9999H928V79H924V72.9999H923V79H919V72.9999H918V79H914V72.9999H913V79H910V71H908V79H904V72.9999H903V79H899V72.9999H898V79H894V72.9999H893V79H889V72.9999H888V79H885V71H883V79H879V72.9999H878V79H874V72.9999H873V79H869V72.9999H868V79H864V72.9999H863V79H860V71H858V79H854V72.9999H853V79H849V72.9999H848V79H844V72.9999H843V79H839V72.9999H838V79H835V71H833V79H829V72.9999H828V79H824V72.9999H823V79H819V72.9999H818V79H814V72.9999H813V79H810V71H808V79H804V72.9999H803V79H799V72.9999H798V79H794V72.9999H793V79H789V72.9999H788V79H785V71H783V79H779V72.9999H778V79H774V72.9999H773V79H769V72.9999H768V79H764V72.9999H763V79H760V71H758V79H754V72.9999H753V79H749V72.9999H748V79H744V72.9999H743V79H739V73.9999H738V79H735Z " fill="#000000" fill-opacity="0.1" transform="matrix(1,0,0,1,215,-71)"></path></svg>
