<?xml version="1.0" encoding="utf-8"?><svg xmlns="http://www.w3.org/2000/svg" xmlns:xlink="http://www.w3.org/1999/xlink"><symbol viewBox="0 0 20 20" id="arrow-down"><path d="M10 17.5L3.5 11H7V3h6v8h3.5L10 17.5z"/></symbol><symbol viewBox="0 0 20 20" id="arrow-left"><path d="M2.5 10L9 3.5V7h8v6H9v3.5L2.5 10z"/></symbol><symbol viewBox="0 0 20 20" id="arrow-right"><path d="M11 16.5V13H3V7h8V3.5l6.5 6.5-6.5 6.5z"/></symbol><symbol viewBox="0 0 20 20" id="arrow-up"><path d="M10 2.5L16.5 9H13v8H7V9H3.5L10 2.5z"/></symbol><symbol viewBox="0 0 20 20" id="chevron-down"><path d="M4.516 7.548c.436-.446 1.043-.481 1.576 0L10 11.295l3.908-3.747c.533-.481 1.141-.446 1.574 0 .436.445.408 1.197 0 1.615-.406.418-4.695 4.502-4.695 4.502a1.095 1.095 0 0 1-1.576 0S4.924 9.581 4.516 9.163s-.436-1.17 0-1.615z"/></symbol><symbol viewBox="0 0 20 20" id="chevron-left"><path d="M12.452 4.516c.446.436.481 1.043 0 1.576L8.705 10l3.747 3.908c.481.533.446 1.141 0 1.574-.445.436-1.197.408-1.615 0-.418-.406-4.502-4.695-4.502-4.695a1.095 1.095 0 0 1 0-1.576s4.084-4.287 4.502-4.695 1.17-.436 1.615 0z"/></symbol><symbol viewBox="0 0 20 20" id="chevron-right"><path d="M9.163 4.516c.418.408 4.502 4.695 4.502 4.695a1.095 1.095 0 0 1 0 1.576s-4.084 4.289-4.502 4.695c-.418.408-1.17.436-1.615 0-.446-.434-.481-1.041 0-1.574L11.295 10 7.548 6.092c-.481-.533-.446-1.141 0-1.576s1.197-.409 1.615 0z"/></symbol><symbol viewBox="0 0 20 20" id="chevron-up"><path d="M15.484 12.452c-.436.446-1.043.481-1.576 0L10 8.705l-3.908 3.747c-.533.481-1.141.446-1.574 0-.436-.445-.408-1.197 0-1.615.406-.418 4.695-4.502 4.695-4.502a1.095 1.095 0 0 1 1.576 0s4.287 4.084 4.695 4.502.436 1.17 0 1.615z"/></symbol><symbol viewBox="0 0 20 20" id="direction"><path d="M18.06 1.941c-.586-.586-1.144-.033-3.041.879C9.944 5.259 1.1 10.216 1.1 10.216L8.699 11.3l1.085 7.599s4.958-8.843 7.396-13.916c.912-1.898 1.465-2.456.88-3.042zm-1.824 1.955l-5.519 10.247-.561-4.655 6.08-5.592z"/></symbol><symbol viewBox="0 0 20 20" id="dribbble"><path d="M9.565 7.421C8.207 5.007 6.754 3.038 6.648 2.893A7.876 7.876 0 0 0 2.311 8.38c.206.004 3.482.043 7.254-.959zm.978 2.64a11 11 0 0 1 .309-.094 26.219 26.219 0 0 0-.637-1.336C6.169 9.843 2.287 9.755 2.15 9.751c-.003.084-.007.166-.007.25 0 2.019.763 3.861 2.016 5.252l-.005-.006s2.15-3.814 6.389-5.186zm-5.372 6.133v-.004c-.058-.045-.12-.086-.178-.135.106.085.178.139.178.139zM8.118 2.372l-.015.004c.006-.002.014-.002.014-.002l.001-.002zm7.071 1.732A7.83 7.83 0 0 0 10 2.143c-.639 0-1.258.078-1.852.221.12.16 1.595 2.119 2.938 4.584 2.962-1.109 4.081-2.812 4.103-2.844zM10 19.2a9.2 9.2 0 0 1-9.199-9.199 9.2 9.2 0 0 1 18.399 0A9.2 9.2 0 0 1 10 19.2zm1.336-7.914c-4.611 1.607-6.134 4.838-6.165 4.904a7.818 7.818 0 0 0 4.828 1.666 7.83 7.83 0 0 0 3.067-.621c-.116-.689-.573-3.096-1.679-5.967a1.464 1.464 0 0 1-.051.018zm.354-3.166c.184.373.358.754.523 1.139.059.135.114.272.17.406 2.713-.342 5.385.238 5.473.256a7.84 7.84 0 0 0-1.787-4.912c-.018.023-1.279 1.843-4.379 3.111zm1.171 2.785c1.031 2.836 1.449 5.142 1.529 5.611a7.858 7.858 0 0 0 3.367-5.27c-.156-.05-2.356-.747-4.896-.341z"/></symbol><symbol viewBox="0 0 20 20" id="edit"><path d="M17.561 2.439c-1.442-1.443-2.525-1.227-2.525-1.227L2.21 14.037 1.2 18.799l4.763-1.01L18.789 4.966c-.001 0 .216-1.083-1.228-2.527zM5.68 17.217l-1.624.35c-.156-.293-.345-.586-.69-.932s-.639-.533-.932-.691l.35-1.623.47-.469s.883.018 1.881 1.016c.997.996 1.016 1.881 1.016 1.881l-.471.468z"/></symbol><symbol viewBox="0 0 20 20" id="eye"><path d="M10 4.4C3.439 4.4 0 9.232 0 10c0 .766 3.439 5.6 10 5.6s10-4.834 10-5.6c0-.768-3.44-5.6-10-5.6zm0 9.907c-2.455 0-4.445-1.928-4.445-4.307S7.545 5.691 10 5.691s4.444 1.93 4.444 4.309-1.989 4.307-4.444 4.307zM10 10c-.407-.447.663-2.154 0-2.154-1.228 0-2.223.965-2.223 2.154s.995 2.154 2.223 2.154c1.227 0 2.223-.965 2.223-2.154 0-.547-1.877.379-2.223 0z"/></symbol><symbol viewBox="0 0 20 20" id="facebook-with-circle"><path d="M10 .4C4.698.4.4 4.698.4 10s4.298 9.6 9.6 9.6 9.6-4.298 9.6-9.6S15.302.4 10 .4zm2.274 6.634h-1.443c-.171 0-.361.225-.361.524V8.6h1.805l-.273 1.486H10.47v4.461H8.767v-4.461H7.222V8.6h1.545v-.874c0-1.254.87-2.273 2.064-2.273h1.443v1.581z"/></symbol><symbol viewBox="0 0 20 20" id="github"><path d="M13.18 11.309c-.718 0-1.3.807-1.3 1.799 0 .994.582 1.801 1.3 1.801s1.3-.807 1.3-1.801c-.001-.992-.582-1.799-1.3-1.799zm4.526-4.683c.149-.365.155-2.439-.635-4.426 0 0-1.811.199-4.551 2.08-.575-.16-1.548-.238-2.519-.238-.973 0-1.945.078-2.52.238C4.74 2.399 2.929 2.2 2.929 2.2c-.789 1.987-.781 4.061-.634 4.426C1.367 7.634.8 8.845.8 10.497c0 7.186 5.963 7.301 7.467 7.301l1.734.002 1.732-.002c1.506 0 7.467-.115 7.467-7.301 0-1.652-.566-2.863-1.494-3.871zm-7.678 10.289h-.056c-3.771 0-6.709-.449-6.709-4.115 0-.879.31-1.693 1.047-2.369C5.537 9.304 7.615 9.9 9.972 9.9h.056c2.357 0 4.436-.596 5.664.531.735.676 1.045 1.49 1.045 2.369 0 3.666-2.937 4.115-6.709 4.115zm-3.207-5.606c-.718 0-1.3.807-1.3 1.799 0 .994.582 1.801 1.3 1.801s1.301-.807 1.301-1.801c0-.992-.582-1.799-1.301-1.799z"/></symbol><symbol viewBox="0 0 20 20" id="globe"><path d="M10 .4C4.705.4.399 4.707.399 10S4.705 19.6 10 19.6c5.293 0 9.6-4.307 9.6-9.6S15.293.4 10 .4zm8.188 9.6c0 1.873-.636 3.6-1.696 4.98-.3-.234-.619-.867-.319-1.523.303-.66.382-2.188.312-2.783-.066-.594-.375-2.025-1.214-2.039-.838-.012-1.413-.289-1.911-1.283-1.033-2.068 1.939-2.465.906-3.609-.289-.322-1.783 1.322-2.002-.869-.014-.157.135-.392.336-.636 3.244 1.09 5.588 4.157 5.588 7.762zM8.875 1.893c-.196.382-.713.537-1.027.824-.684.619-.978.533-1.346 1.127-.371.594-1.567 1.449-1.567 1.879s.604.936.906.838c.302-.1 1.099-.094 1.567.07.469.166 3.914.332 2.816 3.244-.348.926-1.873.77-2.279 2.303-.061.225-.272 1.186-.285 1.5-.025.486.344 2.318-.125 2.318-.471 0-1.738-1.639-1.738-1.936s-.328-1.338-.328-2.23c0-.891-1.518-.877-1.518-2.062 0-1.068.823-1.6.638-2.113-.181-.51-1.627-.527-2.23-.59a8.213 8.213 0 0 1 6.516-5.172zM7.424 17.77c.492-.26.542-.596.988-.613.51-.023.925-.199 1.5-.326.51-.111 1.423-.629 2.226-.695.678-.055 2.015.035 2.375.689a8.159 8.159 0 0 1-7.089.945z"/></symbol><symbol viewBox="0 0 20 20" id="google"><path d="M1.989 5.589c0 1.494.499 2.572 1.482 3.205.806.52 1.74.598 2.226.598.118 0 .213-.006.279-.01 0 0-.154 1.004.59 1.996h-.034c-1.289 0-5.493.269-5.493 3.727 0 3.516 3.861 3.695 4.636 3.695.061 0 .097-.002.097-.002.008 0 .063.002.158.002.497 0 1.782-.062 2.975-.643 1.548-.75 2.333-2.059 2.333-3.885 0-1.764-1.196-2.814-2.069-3.582-.533-.469-.994-.873-.994-1.266 0-.4.337-.701.762-1.082.689-.615 1.339-1.492 1.339-3.15 0-1.457-.189-2.436-1.354-3.057.121-.062.551-.107.763-.137.631-.086 1.554-.184 1.554-.699V1.2H6.64c-.046.002-4.651.172-4.651 4.389zm7.424 9.013c.088 1.406-1.115 2.443-2.922 2.574-1.835.135-3.345-.691-3.433-2.096-.043-.676.254-1.336.835-1.863.589-.533 1.398-.863 2.278-.928.104-.006.207-.012.31-.012 1.699.001 2.849.999 2.932 2.325zM8.212 4.626c.451 1.588-.23 3.246-1.316 3.553a1.417 1.417 0 0 1-.384.052c-.994 0-1.979-1.006-2.345-2.393-.204-.776-.187-1.458.047-2.112.229-.645.643-1.078 1.163-1.225.125-.035.254-.053.385-.053 1.2 0 1.972.498 2.45 2.178zM16 8V5h-2v3h-3v2h3v3h2v-3h3V8h-3z"/></symbol><symbol viewBox="0 0 20 20" id="home"><path d="M18.672 11H17v6c0 .445-.194 1-1 1h-4v-6H8v6H4c-.806 0-1-.555-1-1v-6H1.328c-.598 0-.47-.324-.06-.748L9.292 2.22c.195-.202.451-.302.708-.312.257.01.513.109.708.312l8.023 8.031c.411.425.539.749-.059.749z"/></symbol><symbol viewBox="0 0 20 20" id="magnifying-glass"><path d="M17.545 15.467l-3.779-3.779a6.15 6.15 0 0 0 .898-3.21c0-3.417-2.961-6.377-6.378-6.377S2.1 4.87 2.1 8.287c0 3.416 2.961 6.377 6.377 6.377a6.15 6.15 0 0 0 3.115-.844l3.799 3.801a.953.953 0 0 0 1.346 0l.943-.943c.371-.371.236-.84-.135-1.211zM4.004 8.287c0-2.366 1.917-4.283 4.282-4.283s4.474 2.107 4.474 4.474c0 2.365-1.918 4.283-4.283 4.283s-4.473-2.109-4.473-4.474z"/></symbol><symbol viewBox="0 0 20 20" id="mail"><path d="M1.574 5.286l7.5 4.029c.252.135.578.199.906.199.328 0 .654-.064.906-.199l7.5-4.029c.489-.263.951-1.286.054-1.286H1.521c-.897 0-.435 1.023.053 1.286zm17.039 2.203l-7.727 4.027c-.34.178-.578.199-.906.199s-.566-.021-.906-.199-7.133-3.739-7.688-4.028C.996 7.284 1 7.523 1 7.707V15c0 .42.566 1 1 1h16c.434 0 1-.58 1-1V7.708c0-.184.004-.423-.387-.219z"/></symbol><symbol viewBox="0 0 20 20" id="map"><path d="M19.447 3.718l-6-3a1 1 0 0 0-.895 0l-5.63 2.815-5.606-1.869A1 1 0 0 0 0 2.613v13.001c0 .379.214.725.553.894l6 3a1.006 1.006 0 0 0 .894 0l5.63-2.814 5.606 1.869a.999.999 0 0 0 1.316-.949V4.612a.996.996 0 0 0-.552-.894zM8 5.231l4-2v11.763l-4 2V5.231zM2 4l4 1.333v11.661l-4-2V4zm16 12.227l-4-1.334V3.231l4 2v10.996z"/></symbol><symbol viewBox="0 0 20 20" id="note"><path d="M14.971 9.438c-.422.656-.646.375-.52 0 .336-.993.348-4.528-2.451-4.969L11.998 16c0 1.657-1.735 4-4.998 4-1.657 0-3-.871-3-2.5 0-2.119 1.927-3.4 4-3.4 1.328 0 2 .4 2 .4V0h2c0 2.676 5.986 4.744 2.971 9.438z"/></symbol><symbol viewBox="0 0 20 20" id="old-phone"><path d="M17.256 12.253c-.096-.667-.611-1.187-1.274-1.342-2.577-.604-3.223-2.088-3.332-3.734C12.193 7.092 11.38 7 10 7s-2.193.092-2.65.177c-.109 1.646-.755 3.13-3.332 3.734-.663.156-1.178.675-1.274 1.342l-.497 3.442C2.072 16.907 2.962 18 4.2 18h11.6c1.237 0 2.128-1.093 1.953-2.305l-.497-3.442zM10 15.492c-1.395 0-2.526-1.12-2.526-2.5s1.131-2.5 2.526-2.5 2.526 1.12 2.526 2.5-1.132 2.5-2.526 2.5zM19.95 6c-.024-1.5-3.842-3.999-9.95-4C3.891 2.001.073 4.5.05 6s.021 3.452 2.535 3.127c2.941-.381 2.76-1.408 2.76-2.876C5.345 5.227 7.737 4.98 10 4.98s4.654.247 4.655 1.271c0 1.468-.181 2.495 2.76 2.876C19.928 9.452 19.973 7.5 19.95 6z"/></symbol><symbol viewBox="0 0 20 20" id="paper-plane"><path d="M18.64 2.634L.984 8.856c-.284.1-.347.345-.01.479l3.796 1.521 2.25.901 10.984-8.066c.148-.108.318.095.211.211l-7.871 8.513v.002l-.452.503.599.322 4.982 2.682c.291.156.668.027.752-.334l2.906-12.525c.079-.343-.148-.552-.491-.431zM7 17.162c0 .246.139.315.331.141.251-.229 2.85-2.561 2.85-2.561L7 13.098v4.064z"/></symbol><symbol viewBox="0 0 20 20" id="paypal"><path d="M7.914 10.677h1.659c3.604 0 5.649-1.623 6.3-4.96.021-.11.04-.216.056-.322.036-.226.054-.429.062-.624.006-.134.01-.213.009-.287a2.643 2.643 0 0 0-.216-1.039c-.129-.296-.324-.587-.613-.918C14.318 1.557 12.832 1 11.057 1H5.404a.81.81 0 0 0-.799.683l-1.02 6.571-1.269 8.185a.486.486 0 0 0 .48.561h2.772l.849-5.043a1.51 1.51 0 0 1 1.497-1.28zm9.103-4.587c-.792 3.771-3.357 5.772-7.445 5.772H7.914a.331.331 0 0 0-.328.282L6.481 19h2.907a.707.707 0 0 0 .699-.597l.029-.15.555-3.514.036-.194a.707.707 0 0 1 .699-.597h.44c2.85 0 5.081-1.158 5.733-4.506.268-1.38.132-2.534-.562-3.352z"/></symbol><symbol viewBox="0 0 20 20" id="phone"><path d="M11.229 11.229c-1.583 1.582-3.417 3.096-4.142 2.371-1.037-1.037-1.677-1.941-3.965-.102-2.287 1.838-.53 3.064.475 4.068 1.16 1.16 5.484.062 9.758-4.211 4.273-4.274 5.368-8.598 4.207-9.758-1.005-1.006-2.225-2.762-4.063-.475s-.936 2.927.103 3.965c.722.725-.791 2.559-2.373 4.142z"/></symbol><symbol viewBox="0 0 20 20" id="pinterest"><path d="M8.617 13.227C8.091 15.981 7.45 18.621 5.549 20c-.586-4.162.861-7.287 1.534-10.605-1.147-1.93.138-5.812 2.555-4.855 2.975 1.176-2.576 7.172 1.15 7.922 3.891.781 5.479-6.75 3.066-9.199C10.369-.275 3.708 3.18 4.528 8.245c.199 1.238 1.478 1.613.511 3.322-2.231-.494-2.897-2.254-2.811-4.6.138-3.84 3.449-6.527 6.771-6.9 4.201-.471 8.144 1.543 8.689 5.494.613 4.461-1.896 9.293-6.389 8.945-1.218-.095-1.728-.699-2.682-1.279z"/></symbol><symbol viewBox="0 0 20 20" id="skype"><path d="M18.671 12.037a9.347 9.347 0 0 0 .203-1.938c0-4.986-3.93-9.029-8.777-9.029-.511 0-1.012.047-1.5.133A4.962 4.962 0 0 0 5.89.4C3.079.4.8 2.744.8 5.637c0 .965.256 1.871.699 2.648a9.348 9.348 0 0 0-.178 1.815c0 4.986 3.93 9.029 8.775 9.029.551 0 1.087-.051 1.607-.15a4.956 4.956 0 0 0 2.406.621c2.811 0 5.09-2.344 5.09-5.236a5.328 5.328 0 0 0-.528-2.327zm-4.072 2.379c-.406.59-1.006 1.059-1.783 1.391-.769.33-1.692.496-2.742.496-1.26 0-2.317-.227-3.143-.678a4.161 4.161 0 0 1-1.445-1.318c-.372-.555-.561-1.104-.561-1.633 0-.33.123-.617.365-.852.24-.232.549-.352.916-.352.301 0 .562.094.773.277.202.176.375.438.514.773.156.367.326.676.505.92.172.234.42.432.735.586.318.154.748.232 1.275.232.725 0 1.32-.158 1.768-.473.438-.309.65-.676.65-1.127 0-.357-.111-.637-.34-.857a2.409 2.409 0 0 0-.936-.531 18.034 18.034 0 0 0-1.611-.41c-.91-.201-1.683-.439-2.299-.707-.63-.275-1.137-.658-1.508-1.137-.375-.483-.567-1.092-.567-1.807 0-.682.2-1.297.596-1.828.393-.525.965-.935 1.703-1.217.728-.277 1.596-.418 2.576-.418.783 0 1.473.094 2.047.277.578.186 1.066.436 1.449.744.387.311.674.643.854.986.182.35.275.695.275 1.031 0 .322-.121.615-.361.871-.24.258-.543.387-.9.387-.324 0-.58-.082-.756-.242-.164-.148-.336-.383-.524-.717-.219-.428-.484-.766-.788-1.002-.295-.232-.788-.35-1.466-.35-.629 0-1.141.131-1.519.387-.368.249-.545.532-.545.866 0 .207.058.379.176.525.125.158.301.295.523.41.23.12.467.214.705.282.244.07.654.172 1.215.307.711.156 1.363.332 1.939.521a6.22 6.22 0 0 1 1.502.705c.42.283.754.645.989 1.076.237.434.357.969.357 1.59a3.49 3.49 0 0 1-.613 2.016z"/></symbol><symbol viewBox="0 0 20 20" id="thumbs-down"><path d="M6.352 12.638c.133.356-3.539 3.634-1.397 6.291.501.621 2.201-2.975 4.615-4.602 1.331-.899 4.43-2.811 4.43-3.868V3.617C14 2.346 9.086 1 5.352 1 3.983 1 2 9.576 2 10.939c0 1.367 4.221 1.343 4.352 1.699zM15 12.543c.658 0 3-.4 3-3.123V4.572c0-2.721-2.342-3.021-3-3.021-.657 0 1 .572 1 2.26v6.373c0 1.768-1.657 2.359-1 2.359z"/></symbol><symbol viewBox="0 0 20 20" id="thumbs-up"><path d="M13.648 7.362c-.133-.355 3.539-3.634 1.398-6.291-.501-.621-2.201 2.975-4.615 4.603C9.099 6.572 6 8.484 6 9.541v6.842C6 17.654 10.914 19 14.648 19 16.017 19 18 10.424 18 9.062c0-1.368-4.221-1.344-4.352-1.7zM5 7.457c-.658 0-3 .4-3 3.123v4.848c0 2.721 2.342 3.021 3 3.021.657 0-1-.572-1-2.26V9.816c0-1.768 1.657-2.359 1-2.359z"/></symbol><symbol viewBox="0 0 20 20" id="twitter"><path d="M17.316 6.246c.008.162.011.326.011.488 0 4.99-3.797 10.742-10.74 10.742-2.133 0-4.116-.625-5.787-1.697a7.577 7.577 0 0 0 5.588-1.562 3.779 3.779 0 0 1-3.526-2.621 3.858 3.858 0 0 0 1.705-.065 3.779 3.779 0 0 1-3.028-3.703v-.047a3.766 3.766 0 0 0 1.71.473 3.775 3.775 0 0 1-1.168-5.041 10.716 10.716 0 0 0 7.781 3.945 3.813 3.813 0 0 1-.097-.861 3.773 3.773 0 0 1 3.774-3.773 3.77 3.77 0 0 1 2.756 1.191 7.602 7.602 0 0 0 2.397-.916 3.789 3.789 0 0 1-1.66 2.088 7.55 7.55 0 0 0 2.168-.594 7.623 7.623 0 0 1-1.884 1.953z"/></symbol><symbol viewBox="0 0 20 20" id="upload-to-cloud"><path d="M15.213 6.639c-.276 0-.546.025-.809.068C13.748 4.562 11.716 3 9.309 3c-2.939 0-5.32 2.328-5.32 5.199 0 .256.02.508.057.756a3.567 3.567 0 0 0-.429-.027C1.619 8.928 0 10.51 0 12.463S1.619 16 3.617 16H8v-4H5.5L10 7l4.5 5H12v4h3.213C17.856 16 20 13.904 20 11.32c0-2.586-2.144-4.681-4.787-4.681z"/></symbol></svg>