<?xml version="1.0" encoding="iso-8859-1"?>
<!-- Generator: Adobe Illustrator 18.1.1, SVG Export Plug-In . SVG Version: 6.00 Build 0)  -->
<svg xmlns="http://www.w3.org/2000/svg" xmlns:xlink="http://www.w3.org/1999/xlink" version="1.1" id="Capa_1" x="0px" y="0px" viewBox="0 0 30.849 30.849" style="enable-background:new 0 0 30.849 30.849;" xml:space="preserve" width="512px" height="512px">
<g>
	<g id="c44_terminal">
		<path d="M28.648,2.202H2.206C0.986,2.202,0,3.187,0,4.404v22.039c0,1.215,0.986,2.203,2.206,2.203h26.442    c1.213,0,2.201-0.988,2.201-2.203V4.404C30.85,3.187,29.861,2.202,28.648,2.202z M10.537,3.856c0.609,0,1.1,0.491,1.1,1.103    c0,0.607-0.49,1.099-1.1,1.099c-0.608,0-1.104-0.491-1.104-1.099C9.433,4.348,9.928,3.856,10.537,3.856z M7.164,3.856    c0.607,0,1.102,0.491,1.102,1.103c0,0.607-0.494,1.099-1.102,1.099c-0.611,0-1.105-0.491-1.105-1.099    C6.058,4.348,6.552,3.856,7.164,3.856z M3.855,3.856c0.609,0,1.104,0.491,1.104,1.103c0,0.607-0.494,1.099-1.104,1.099    c-0.607,0-1.1-0.491-1.1-1.099C2.755,4.348,3.248,3.856,3.855,3.856z M28.648,26.443H2.206V7.736h26.442    C28.648,7.736,28.648,26.443,28.648,26.443z M28.648,5.531H13.22V4.43h15.428V5.531z" fill="#FFFFFF"/>
	</g>
	<g id="Capa_1_149_">
	</g>
</g>
<g>
</g>
<g>
</g>
<g>
</g>
<g>
</g>
<g>
</g>
<g>
</g>
<g>
</g>
<g>
</g>
<g>
</g>
<g>
</g>
<g>
</g>
<g>
</g>
<g>
</g>
<g>
</g>
<g>
</g>
</svg>
