<?xml version="1.0" encoding="iso-8859-1"?>
<!-- Generator: Adobe Illustrator 19.1.0, SVG Export Plug-In . SVG Version: 6.00 Build 0)  -->
<svg version="1.1" id="Capa_1" xmlns="http://www.w3.org/2000/svg" xmlns:xlink="http://www.w3.org/1999/xlink" x="0px" y="0px"
	 viewBox="0 0 532.065 532.065" style="enable-background:new 0 0 532.065 532.065;" xml:space="preserve">
<g>
	<g>
		<path d="M201.389,290.895c-19.89,0-34.808,14.918-34.808,34.808s14.918,34.808,34.808,34.808s34.808-14.918,34.808-34.808
			C236.197,308.299,221.279,290.895,201.389,290.895z M201.389,335.648c-4.973,0-9.945-4.973-9.945-9.945
			c0-4.973,4.973-9.945,9.945-9.945s9.945,4.973,9.945,9.945C211.334,333.162,206.361,335.648,201.389,335.648z"/>
		<path d="M325.703,290.895c-19.89,0-34.808,14.918-34.808,34.808s14.918,34.808,34.808,34.808c19.89,0,34.808-14.918,34.808-34.808
			C360.511,308.299,345.593,290.895,325.703,290.895z M325.703,335.648c-4.973,0-9.945-4.973-9.945-9.945
			c0-4.973,4.973-9.945,9.945-9.945c4.973,0,9.945,4.973,9.945,9.945C335.648,333.162,330.676,335.648,325.703,335.648z"/>
		<path d="M236.197,144.204c-4.973-4.973-12.431-4.973-17.404,0l-42.267,44.753c-4.973,4.973-4.973,12.431,0,17.404
			c2.486,2.486,4.973,2.486,9.945,2.486c4.973,0,7.459,0,9.945-2.486l42.267-42.267
			C241.169,159.122,241.169,149.177,236.197,144.204z"/>
		<path d="M243.656,169.067l-42.267,44.753c-4.973,4.973-4.973,12.431,0,17.404c2.486,2.486,4.973,2.486,9.945,2.486
			c4.973,0,7.459,0,9.945-2.486l42.267-42.267c4.973-4.973,4.973-12.431,0-17.404C258.573,166.581,248.628,164.095,243.656,169.067z
			"/>
		<path d="M362.997,397.805h32.322c7.459,0,12.431-4.973,12.431-12.431V62.157c0-7.459-4.973-12.431-12.431-12.431h-37.294V12.431
			C358.025,4.973,353.052,0,345.593,0h-174.04c-7.459,0-12.431,4.973-12.431,12.431v37.294h-37.294
			c-7.459,0-12.431,4.973-12.431,12.431v323.217c0,7.459,4.973,12.431,12.431,12.431h42.267L84.534,509.688
			c-4.973,4.973-2.486,12.431,2.486,17.404c2.486,2.486,4.973,2.486,7.459,2.486c4.973,0,7.459-2.486,9.945-4.973L126.8,494.77
			c2.486,2.486,4.973,4.973,9.945,4.973h248.628c7.459,0,12.431-4.973,12.431-12.431l0,0l29.835,39.781
			c2.486,2.486,4.973,4.973,9.945,4.973c2.486,0,4.973,0,7.459-2.486c4.973-4.973,7.459-12.431,2.486-17.404L362.997,397.805z
			 M134.259,124.314h248.628v124.314H134.259C134.259,248.628,134.259,124.314,134.259,124.314z M183.985,24.863h149.177v24.863
			H183.985V24.863z M134.259,74.588h248.628v24.863H134.259C134.259,99.451,134.259,74.588,134.259,74.588z M134.259,273.491
			h248.628v99.451H134.259C134.259,372.942,134.259,273.491,134.259,273.491z M333.162,397.805l17.404,24.863h-174.04l17.404-24.863
			H333.162z M382.888,472.394H139.232l17.404-24.863l0,0h198.903c2.486,0,4.973-2.486,7.459-2.486l22.377,29.835
			C385.374,472.394,385.374,472.394,382.888,472.394z"/>
	</g>
</g>
<g>
</g>
<g>
</g>
<g>
</g>
<g>
</g>
<g>
</g>
<g>
</g>
<g>
</g>
<g>
</g>
<g>
</g>
<g>
</g>
<g>
</g>
<g>
</g>
<g>
</g>
<g>
</g>
<g>
</g>
</svg>
